<svg width="258" height="52" viewBox="0 0 258 52" fill="none" xmlns="http://www.w3.org/2000/svg">
<path d="M35.1125 38.7441H33.5125V51.3547H35.1125V38.7441Z" fill="#00458D"/>
<path d="M31.216 42.9911H29.3784V44.2057H31.216V51.3547H32.816V38.7441H31.216V42.9911Z" fill="#00458D"/>
<path d="M28.1424 41.8415V41.2546H30.1622V40.04H28.1424V38.5809H26.4552V40.04H24.4354V41.2546H26.4552V41.8415C26.4552 44.3604 25.576 45.8114 24.0948 47.1645L25.0612 47.9879C25.9087 47.3602 26.9622 46.2516 27.3028 45.0777C27.6354 46.219 28.6968 47.352 29.5443 47.9879L30.5107 47.1645C29.0295 45.8114 28.1503 44.3604 28.1503 41.8415H28.1424Z" fill="#00458D"/>
<path d="M42.1862 43.8142C44.2535 43.8142 45.5921 42.7138 45.5921 40.9938C45.5921 39.2738 44.2535 38.1733 42.1862 38.1733C40.1189 38.1733 38.7882 39.2738 38.7882 40.9938C38.7882 42.7138 40.1268 43.8142 42.1862 43.8142ZM42.1862 39.4368C43.1842 39.4368 43.8337 40.0482 43.8337 40.9938C43.8337 41.9394 43.1842 42.5589 42.1862 42.5589C41.1882 42.5589 40.5387 41.9475 40.5387 40.9938C40.5387 40.04 41.1882 39.4368 42.1862 39.4368Z" fill="#00458D"/>
<path d="M39.3665 45.6648V47.0017H37.8853V48.2244H44.3328C44.4279 48.2244 44.5071 48.2978 44.5071 48.3956V51.4769H46.21V47.8494C46.21 47.3848 45.8457 47.0017 45.3863 47.0017H44.9902V45.6648H47.8893V44.4502H36.4596V45.6648H39.3665ZM41.0774 45.6648H43.2873V47.0017H41.0774V45.6648Z" fill="#00458D"/>
<path d="M94.1389 38.7441H92.4201V45.1513H94.1389V42.3227H95.8894V41.1081H94.1389V38.7441Z" fill="#00458D"/>
<path d="M22.1781 40.1623V39.6161C22.1781 39.1515 21.8059 38.7683 21.3544 38.7683H14.0673V39.9829H20.293C20.388 39.9829 20.4673 40.0645 20.4673 40.1623V40.5943C20.4673 42.1676 20.0158 43.3985 20.0158 43.3985H12.4277V44.6131H17.2752V46.5939H14.1385V47.8085H20.2772C20.3722 47.8085 20.4514 47.89 20.4514 47.9878V51.4278H22.1623V47.4417C22.1623 46.977 21.7979 46.5939 21.3385 46.5939H18.994V44.6131H23.8574V43.3985H21.6871C21.6871 43.3985 22.1861 42.0127 22.1861 40.1704L22.1781 40.1623Z" fill="#00458D"/>
<path d="M69.5761 47.3522H65.3147V45.9094H63.5959V50.3031C63.5959 50.7759 63.9602 51.1509 64.4196 51.1509H70.4711C70.9305 51.1509 71.2949 50.7759 71.2949 50.3031V45.9094H69.5761V47.3522ZM69.5761 49.7406C69.5761 49.8384 69.4968 49.92 69.4018 49.92H65.4889C65.3939 49.92 65.3147 49.8384 65.3147 49.7406V48.5668H69.5761V49.7406Z" fill="#00458D"/>
<path d="M69.5765 41.3198H67.6201C67.3508 39.7384 66.1151 38.7602 64.3805 38.7602C62.4082 38.7602 61.0854 40.0155 61.0854 41.9801C61.0854 43.9446 62.4082 45.2 64.3805 45.2C66.1547 45.2 67.3983 44.181 67.6359 42.5425H69.5765V45.4119H71.2953V38.7357H69.5765V41.3198ZM64.3805 43.8142C63.4775 43.8142 62.8914 43.0968 62.8914 41.9801C62.8914 40.8633 63.4775 40.1378 64.3805 40.1378C65.2834 40.1378 65.8696 40.8551 65.8696 41.9801C65.8696 43.105 65.2834 43.8142 64.3805 43.8142Z" fill="#00458D"/>
<path d="M52.8476 49.7568V46.7162H51.1367V50.2948C51.1367 50.7676 51.509 51.1507 51.9684 51.1507H58.9546V49.9361H53.0298C52.9348 49.9361 52.8556 49.8546 52.8556 49.7568H52.8476Z" fill="#00458D"/>
<path d="M54.9386 45.5749L55.5881 44.45C52.9822 43.3006 52.7763 40.5698 52.7604 39.4856V38.9232H51.0178V39.4856C51.002 40.5698 50.8357 43.2762 48.1901 44.45L48.8396 45.5749C48.8396 45.5749 50.8911 44.8087 51.8891 42.9501C52.8871 44.8168 54.9386 45.5749 54.9386 45.5749Z" fill="#00458D"/>
<path d="M81.3942 42.3471H80.4674V38.7441H78.8674V51.3547H80.4674V43.5617H81.3942V51.3547H82.9942V38.7441H81.3942V42.3471Z" fill="#00458D"/>
<path d="M77.1328 39.1025H72.8793V40.3171H76.016C76.111 40.3171 76.1823 40.3904 76.1902 40.4801C76.1902 42.2816 75.4457 45.2243 72.6259 47.3275L73.4892 48.1997C76.9664 45.9987 77.9724 42.3061 77.9724 40.3171V39.8524C77.9249 39.4285 77.5763 39.0943 77.1328 39.0943V39.1025Z" fill="#00458D"/>
<path d="M90.8432 43.9852V38.9964H89.1244V40.7164H86.5818V38.9964H84.863V43.9852C84.863 44.458 85.2352 44.833 85.6867 44.833H90.0194C90.4788 44.833 90.8432 44.458 90.8432 43.9852ZM89.1244 43.4227C89.1244 43.5206 89.0451 43.6021 88.9501 43.6021H86.756C86.661 43.6021 86.5818 43.5206 86.5818 43.4227V41.9391H89.1244V43.4227Z" fill="#00458D"/>
<path d="M88.2854 49.8139V49.2433C88.2854 49.1455 88.3567 49.0721 88.4518 49.0721H93.3468C93.7904 49.0721 94.1547 48.6971 94.1547 48.2406V46.6266C94.1547 46.162 93.7904 45.7951 93.3468 45.7951H86.5666V46.9608H92.2696C92.3646 46.9608 92.4359 47.0342 92.4359 47.132V47.7352C92.4359 47.833 92.3567 47.9064 92.2696 47.9064H87.3745C86.923 47.9064 86.5666 48.2814 86.5666 48.7379V50.3111C86.5666 50.7676 86.931 51.1426 87.3745 51.1426H94.226V49.9851H88.4518C88.3567 49.9851 88.2854 49.9036 88.2854 49.8139Z" fill="#00458D"/>
<path d="M4.45166 49.7485V46.8547H2.74077V50.3028C2.74077 50.7675 3.10513 51.1506 3.56453 51.1506H10.6457V49.936H4.63384C4.53879 49.936 4.45958 49.8545 4.45958 49.7648L4.45166 49.7485Z" fill="#00458D"/>
<path d="M10.4315 38.7441H8.71269V47.393H10.4315V43.0074H12.1582V41.7765H10.4315V38.7441Z" fill="#00458D"/>
<path d="M6.78019 42.9501C6.78019 42.1839 6.53465 41.5317 6.11485 41.0426H7.34257V39.8281H4.51485V38.3608H2.82772V39.8281H0V41.0426H1.22772C0.815841 41.5399 0.562376 42.1839 0.562376 42.9501C0.562376 44.7598 1.92475 45.9173 3.66732 45.9173C5.4099 45.9173 6.77227 44.7598 6.77227 42.9501H6.78019ZM2.30495 42.9501C2.30495 41.8986 2.84356 41.2301 3.67524 41.2301C4.50693 41.2301 5.04554 41.8986 5.04554 42.9501C5.04554 44.0017 4.50693 44.6701 3.67524 44.6701C2.84356 44.6701 2.30495 44.0017 2.30495 42.9501Z" fill="#00458D"/>
<path d="M58.6216 38.7441H56.9028V47.393H58.6216V43.0074H60.3484V41.7765H58.6216V38.7441Z" fill="#00458D"/>
<path d="M135.739 40.6758V38.9232H133.98V40.6758C133.98 42.0942 133.584 45.2814 130.946 47.0096L131.691 47.9552C132.135 47.7188 134.099 46.4145 134.851 44.5396C135.604 46.4145 137.568 47.7188 138.012 47.9552L138.756 47.0096C136.127 45.2814 135.723 42.0942 135.723 40.6758H135.739Z" fill="#00458D"/>
<path d="M141.204 42.4694V38.7441H139.485V51.3547H141.204V43.684H142.939V42.4694H141.204Z" fill="#00458D"/>
<path d="M111.303 42.9501C112.301 44.8168 114.352 45.5749 114.352 45.5749L115.002 44.45C112.388 43.3006 112.19 40.5698 112.174 39.4856V38.9232H110.432V39.4856C110.416 40.5698 110.249 43.2762 107.604 44.45L108.253 45.5749C108.253 45.5749 110.305 44.8087 111.303 42.9501Z" fill="#00458D"/>
<path d="M117.98 38.7441H116.261V45.7056H117.98V38.7441Z" fill="#00458D"/>
<path d="M117.157 46.5775H110.012V47.7921H116.095C116.19 47.7921 116.269 47.8736 116.269 47.9714V51.3462H117.988V47.4171C117.988 46.9524 117.624 46.5693 117.164 46.5693L117.157 46.5775Z" fill="#00458D"/>
<path d="M128.214 46.1211C127.43 46.8059 126.416 47.0993 124.76 47.1972C124.697 47.1972 124.531 47.2053 124.467 47.2135V45.7054C125.742 45.412 126.653 44.4582 126.653 43.0887C126.653 42.3959 126.416 41.8089 126.028 41.3606H127.327V40.146H124.467V38.5809H122.78V40.146H119.921V41.3606H121.22C120.824 41.8089 120.594 42.3959 120.594 43.0887C120.594 44.4501 121.489 45.4038 122.748 45.7054V47.2379H119.699V48.4607H122.867C124.23 48.4607 126.511 48.5259 128.206 47.4825V51.3626H129.925V38.7521H128.206V46.1293L128.214 46.1211ZM122.336 43.0887C122.336 42.1921 122.843 41.6133 123.628 41.6133C124.412 41.6133 124.919 42.1839 124.919 43.0887C124.919 43.9936 124.412 44.5642 123.628 44.5642C122.843 44.5642 122.336 43.9854 122.336 43.0887Z" fill="#00458D"/>
<path d="M96.0948 46.92H100.927V51.3545H102.629V46.92H107.461V45.6972H96.0948V46.92Z" fill="#00458D"/>
<path d="M96.9025 43.4639L97.251 44.5806C99.2867 44.2872 100.776 43.6677 101.774 42.3145C102.772 43.6677 104.269 44.2872 106.297 44.5806L106.645 43.4639C104.776 43.0808 102.97 42.2004 102.677 40.1869H105.782V38.9805H97.7659V40.1869H100.871C100.578 42.2004 98.7718 43.0808 96.9025 43.4639Z" fill="#00458D"/>
<path d="M64.1663 13.7593H55.5881C51.5802 13.7593 49.7584 16.4249 49.2594 18.3324L45.8614 31.3831H47.1842C49.0139 31.3831 50.3525 30.8044 50.6614 29.7447C51.3663 27.0302 52.7762 21.6256 53.4812 18.903C53.7584 17.8433 54.796 17.2808 55.5168 17.2808C57.8218 17.2808 61.798 17.2808 61.798 17.2808C62.8911 17.2808 64.2297 17.4602 63.6277 19.5307C63.2871 20.7616 62.2178 21.3811 60.4119 21.3811H57.6C55.7465 21.3811 54.3921 21.968 54.1069 23.0603L53.6238 24.8944H59.7386C63.5089 24.8944 66.8277 24.0793 68.0475 19.3921C69.0772 15.4304 67.2634 13.7512 64.1663 13.7512V13.7593Z" fill="#00458D"/>
<path d="M80.6572 13.262H79.786C74.8434 13.262 69.9483 16.6368 68.6731 21.5522L68.1424 23.5982C66.8592 28.5137 69.9959 31.8884 74.9384 31.8884H75.8097C80.7523 31.8884 85.6473 28.5137 86.9226 23.5982L87.4533 21.5522C88.7365 16.6368 85.5998 13.262 80.6493 13.262H80.6572ZM82.8275 22.2695L82.6374 22.995C81.7186 26.5328 78.9701 28.4485 76.7048 28.4485H75.8572C73.5998 28.4485 71.8414 26.5328 72.7681 22.995L72.9582 22.2695C73.8771 18.7317 76.6256 16.8161 78.883 16.8161H79.7305C81.9879 16.8161 83.7384 18.7317 82.8196 22.2695H82.8275Z" fill="#00458D"/>
<path d="M137.283 13.262H136.412C131.469 13.262 126.574 16.6368 125.299 21.5522L124.768 23.5982C123.485 28.5137 126.622 31.8884 131.564 31.8884H132.435C137.378 31.8884 142.273 28.5137 143.548 23.5982L144.079 21.5522C145.362 16.6368 142.226 13.262 137.283 13.262ZM139.453 22.2695L139.263 22.995C138.336 26.5328 135.596 28.4485 133.331 28.4485H132.475C130.226 28.4485 128.467 26.5328 129.394 22.995L129.584 22.2695C130.503 18.7317 133.251 16.8161 135.509 16.8161H136.356C138.614 16.8161 140.364 18.7317 139.445 22.2695H139.453Z" fill="#00458D"/>
<path d="M28.6257 10.3925H24.1901C22.3762 10.3925 20.903 11.0283 20.0713 11.7538L9.34653 19.7098C10.202 16.4165 11.0495 13.1803 11.7703 10.4006H8.67326C6.75643 10.4006 5.34653 11.0039 5.01386 12.1125L0 31.3829H3.08911C5.04554 31.3829 6.47128 30.7634 6.77227 29.614C7.39009 27.2419 8.07128 24.6252 8.76039 21.9841L14.9624 29.9645C15.5643 30.7389 16.2376 31.3829 18.4317 31.3829H23.1683L15.0812 21.063L28.6257 10.4006V10.3925Z" fill="#00458D"/>
<path d="M41.5048 20.6475H35.5563C33.9483 20.6475 33.1879 20.3214 33.5998 18.8949C33.9404 17.6721 34.9543 17.2727 36.7523 17.2727H44.2691C46.1226 17.2727 47.477 16.6858 47.7622 15.5934L48.2374 13.7512H37.4335C33.6711 13.7512 30.3285 14.6479 29.18 19.0334C28.3879 22.0821 29.8295 24.1853 33.1879 24.169H39.1285C40.784 24.169 41.481 24.5358 41.0612 26.0112C40.7206 27.2421 39.6513 27.8535 37.8454 27.8535H30.2414C28.3879 27.8535 27.0335 28.4404 26.7483 29.5327L26.2652 31.375H37.1563C41.2275 31.375 44.2929 30.3805 45.4652 25.8726C46.3919 22.3185 44.4275 20.6393 41.481 20.6393L41.5048 20.6475Z" fill="#00458D"/>
<path d="M105.457 22.7995H103.477C102.566 22.7995 101.719 23.2316 101.386 23.8674C101.022 24.5521 100.42 25.4733 99.9129 25.9542L97.5683 22.7751C102.495 20.9084 103.057 17.4195 101.41 15.8951C99.9683 14.5582 96.7762 14.4278 94.3129 15.8625C91.2792 17.6314 91.9287 20.191 93.0931 22.1066L92.6178 22.3267C90.0119 23.5087 88.4119 24.7478 87.8812 27.0058C87.3188 29.4268 89.3069 31.7908 92.8317 31.7908C95.5168 31.7908 97.1564 31.0001 98.7802 29.9974L99.7941 31.4076H103.849L101.457 28.0981C102.867 27.0058 104.911 24.2342 105.465 22.7914L105.457 22.7995ZM97.5049 17.0363C100.246 17.0363 99.1208 19.2291 98.0356 19.8568C97.7188 20.0443 96.697 20.6068 96.1505 20.835C95.7386 20.2725 95.4851 19.7264 95.3743 19.5063C94.6772 18.1531 96.0317 17.0363 97.5049 17.0363ZM93.4178 29.2312C91.2792 29.2312 90.7643 27.7313 90.9544 27.0302C91.2713 25.8075 92.8158 24.9923 94.5663 24.1527L97.2911 27.9351C96.4356 28.6116 94.5901 29.223 93.4178 29.223V29.2312Z" fill="#00458D"/>
<path d="M112.966 18.8949C113.243 17.8351 114.289 17.2727 115.002 17.2727C117.314 17.2727 123.168 17.2727 123.168 17.2727C124.522 17.2727 125.457 16.482 125.647 15.7646L126.17 13.7512H115.065C111.057 13.7512 109.235 16.4168 108.736 18.3242L106.637 26.2395C105.861 29.2067 107.223 31.3913 110.645 31.375H119.928C121.283 31.375 122.217 30.5843 122.407 29.8588L122.93 27.8535H112.95C111.421 27.8453 110.637 27.5437 111.057 26.1009C111.057 26.1009 112.261 21.6093 112.966 18.8867V18.8949Z" fill="#00458D"/>
<path d="M153.22 6.8143C152.863 6.60236 152.705 6.60236 152.42 6.92027C151.263 8.20008 149.204 10.6211 148.166 11.8275C149.568 13.9062 150.622 17.2565 150.012 21.5443C149.925 21.8377 150.099 22.0334 150.36 21.7725C152.99 19.0336 155.921 16.0256 158.558 13.9796C157.513 10.6945 155.2 7.96368 153.235 6.80615L153.22 6.8143Z" fill="#F39800"/>
<path d="M136.919 6.10492C136.776 6.18644 136.776 6.39838 136.919 6.39838C140.649 6.30872 143.137 7.18909 145.212 8.7379C147.572 6.75705 151.556 3.64313 153.497 2.62418C154.265 2.43669 155.636 2.27366 156.562 2.24106C155.754 3.12958 154.614 4.43384 153.972 5.15934C153.806 5.34682 153.972 5.50986 154.162 5.43649C159.461 3.29261 166.495 1.65414 172.23 1.23025C159.144 -1.58205 146.471 0.586277 136.927 6.11308L136.919 6.10492Z" fill="#00458D"/>
<path d="M174.138 1.67849C169.037 2.30616 162.218 4.61307 158.74 6.47164C158.257 6.73249 158.344 6.91183 158.717 7.08301C159.849 7.60472 161.861 8.89267 163.002 10.7023C170.487 6.10482 176.855 3.83052 179.018 3.08057C177.41 2.54256 175.707 2.06161 174.146 1.67849H174.138Z" fill="#009DE1"/>
<path d="M250.284 32.3701V34.6611H246.219C246.241 37.042 247.667 39.3442 250.935 40.2988L249.565 42.5449C247.308 41.8599 245.747 40.4897 244.849 38.7266C243.939 40.793 242.277 42.4326 239.817 43.2412L238.357 40.9727C241.749 39.9058 243.276 37.2554 243.321 34.6611H239.143V32.3701H250.284ZM254.889 31V35.7393H257.651V38.0752H254.889V43.1289H252.014V31H254.889ZM248.195 43.5332C252.44 43.5107 255.091 44.9707 255.091 47.4639C255.091 49.957 252.44 51.4395 248.195 51.4395C243.86 51.4395 241.187 49.957 241.187 47.4639C241.187 44.9707 243.86 43.5107 248.195 43.5332ZM248.195 45.7568C245.5 45.7568 244.04 46.3184 244.062 47.4639C244.04 48.6318 245.5 49.2158 248.195 49.2158C250.846 49.2158 252.261 48.6318 252.261 47.4639C252.261 46.3184 250.846 45.7568 248.195 45.7568Z" fill="#00458D"/>
<path d="M235.718 32.1904V34.0322C235.718 35.9414 235.718 38.0303 235.201 40.8828H237.896V43.1963H229.923V51.4619H227.048V43.1963H219.254V40.8828H232.304C232.82 38.2437 232.865 36.2446 232.865 34.4814H221.388V32.1904H235.718Z" fill="#00458D"/>
<path d="M218.478 41.0625V43.3311H210.55V45.1055H216.21V51.417H213.357V47.374H201.902V45.1055H207.72V43.3311H199.836V41.0625H218.478ZM210.55 31.0225V32.8643H216.682V35.0879H210.774C211.1 36.5591 213.178 37.8843 217.647 38.1875L216.771 40.3213C213.02 40.063 210.415 38.9849 209.135 37.334C207.843 38.9849 205.238 40.063 201.498 40.3213L200.622 38.1875C205.069 37.8843 207.147 36.5591 207.495 35.0879H201.633V32.8643H207.72V31.0225H210.55Z" fill="#00458D"/>
<path d="M191.873 32.46V34.7959H190.211V40.0742C191.031 40.0181 191.828 39.9395 192.592 39.8496L192.794 41.9385C188.706 42.6123 184.034 42.7246 180.62 42.7246L180.306 40.3662H182.529V34.7959H180.845V32.46H191.873ZM196.635 31V36.1436H199.397V38.502H196.635V43.5107H193.76V31H196.635ZM196.635 44.3193V51.4395H193.76V46.6104H182.866V44.3193H196.635ZM185.292 40.3213L187.448 40.2314V34.7959H185.292V40.3213Z" fill="#00458D"/>
<path d="M170.321 31.1797C175.016 31.1797 177.733 32.415 177.756 34.6836C177.733 36.7051 175.543 37.9067 171.691 38.1201V39.3105H179.643V41.5791H161V39.3105H168.861V38.1201C165.043 37.8843 162.864 36.6826 162.864 34.6836C162.864 32.415 165.604 31.1797 170.321 31.1797ZM170.321 33.291C167.312 33.291 165.852 33.7402 165.874 34.6836C165.852 35.6719 167.312 36.0762 170.321 36.0762C173.354 36.0762 174.791 35.6719 174.791 34.6836C174.791 33.7402 173.354 33.291 170.321 33.291ZM177.374 42.7021V47.9131H165.986V49.1484H177.913V51.3047H163.179V45.9141H174.544V44.8359H163.156V42.7021H177.374Z" fill="#00458D"/>
</svg>
