<svg width="301" height="52" viewBox="0 0 301 52" fill="none" xmlns="http://www.w3.org/2000/svg">
<path d="M35.1261 38.744H33.5254V51.3546H35.1261V38.744Z" fill="#00458D"/>
<path d="M31.2281 42.991H29.3897V44.2056H31.2281V51.3546H32.8287V38.744H31.2281V42.991Z" fill="#00458D"/>
<path d="M28.1532 41.8415V41.2545H30.1738V40.04H28.1532V38.5808H26.4655V40.04H24.4449V41.2545H26.4655V41.8415C26.4655 44.3603 25.5859 45.8113 24.1041 47.1645L25.0709 47.9878C25.9187 47.3601 26.9726 46.2515 27.3133 45.0777C27.6461 46.2189 28.7079 47.3519 29.5558 47.9878L30.5225 47.1645C29.0407 45.8113 28.1612 44.3603 28.1612 41.8415H28.1532Z" fill="#00458D"/>
<path d="M42.2025 43.8141C44.2706 43.8141 45.6098 42.7137 45.6098 40.9937C45.6098 39.2737 44.2706 38.1732 42.2025 38.1732C40.1344 38.1732 38.8032 39.2737 38.8032 40.9937C38.8032 42.7137 40.1423 43.8141 42.2025 43.8141ZM42.2025 39.4367C43.2009 39.4367 43.8507 40.0481 43.8507 40.9937C43.8507 41.9393 43.2009 42.5588 42.2025 42.5588C41.2041 42.5588 40.5543 41.9474 40.5543 40.9937C40.5543 40.04 41.2041 39.4367 42.2025 39.4367Z" fill="#00458D"/>
<path d="M39.3817 45.6647V47.0016H37.8999V48.2243H44.35C44.445 48.2243 44.5243 48.2977 44.5243 48.3955V51.4768H46.2279V47.8494C46.2279 47.3847 45.8634 47.0016 45.4038 47.0016H45.0076V45.6647H47.9078V44.4501H36.4736V45.6647H39.3817ZM41.0933 45.6647H43.304V47.0016H41.0933V45.6647Z" fill="#00458D"/>
<path d="M94.1752 38.744H92.4558V45.1512H94.1752V42.3226H95.9264V41.108H94.1752V38.744Z" fill="#00458D"/>
<path d="M22.1867 40.1622V39.616C22.1867 39.1514 21.8143 38.7683 21.3626 38.7683H14.0727V39.9829H20.3008C20.3959 39.9829 20.4752 40.0644 20.4752 40.1622V40.5942C20.4752 42.1675 20.0235 43.3984 20.0235 43.3984H12.4325V44.613H17.2819V46.5938H14.144V47.8084H20.285C20.3801 47.8084 20.4593 47.8899 20.4593 47.9877V51.4277H22.1709V47.4416C22.1709 46.9769 21.8064 46.5938 21.3468 46.5938H19.0013V44.613H23.8666V43.3984H21.6954C21.6954 43.3984 22.1946 42.0126 22.1946 40.1704L22.1867 40.1622Z" fill="#00458D"/>
<path d="M69.6029 47.3521H65.3399V45.9093H63.6204V50.303C63.6204 50.7758 63.9849 51.1508 64.4445 51.1508H70.4983C70.9579 51.1508 71.3224 50.7758 71.3224 50.303V45.9093H69.6029V47.3521ZM69.6029 49.7405C69.6029 49.8384 69.5237 49.9199 69.4286 49.9199H65.5142C65.4191 49.9199 65.3399 49.8384 65.3399 49.7405V48.5667H69.6029V49.7405Z" fill="#00458D"/>
<path d="M69.6034 41.3197H67.6462C67.3768 39.7383 66.1407 38.7601 64.4053 38.7601C62.4323 38.7601 61.109 40.0155 61.109 41.98C61.109 43.9445 62.4323 45.1999 64.4053 45.1999C66.1803 45.1999 67.4243 44.1809 67.662 42.5425H69.6034V45.4118H71.3229V38.7357H69.6034V41.3197ZM64.4053 43.8141C63.502 43.8141 62.9157 43.0968 62.9157 41.98C62.9157 40.8632 63.502 40.1377 64.4053 40.1377C65.3087 40.1377 65.895 40.8551 65.895 41.98C65.895 43.1049 65.3087 43.8141 64.4053 43.8141Z" fill="#00458D"/>
<path d="M52.868 49.7567V46.7161H51.1565V50.2947C51.1565 50.7675 51.5289 51.1506 51.9885 51.1506H58.9773V49.936H53.0503C52.9552 49.936 52.876 49.8545 52.876 49.7567H52.868Z" fill="#00458D"/>
<path d="M54.9599 45.5748L55.6096 44.4499C53.0027 43.3005 52.7966 40.5697 52.7808 39.4856V38.9231H51.0375V39.4856C51.0217 40.5697 50.8553 43.2761 48.2087 44.4499L48.8585 45.5748C48.8585 45.5748 50.9108 44.8086 51.9092 42.95C52.9076 44.8167 54.9599 45.5748 54.9599 45.5748Z" fill="#00458D"/>
<path d="M81.4256 42.347H80.4985V38.744H78.8979V51.3546H80.4985V43.5616H81.4256V51.3546H83.0262V38.744H81.4256V42.347Z" fill="#00458D"/>
<path d="M77.1626 39.1024H72.9075V40.317H76.0453C76.1404 40.317 76.2117 40.3904 76.2196 40.48C76.2196 42.2815 75.4748 45.2243 72.6539 47.3274L73.5176 48.1996C76.9962 45.9987 78.0025 42.306 78.0025 40.317V39.8524C77.955 39.4285 77.6063 39.0943 77.1626 39.0943V39.1024Z" fill="#00458D"/>
<path d="M90.8783 43.9851V38.9963H89.1588V40.7163H86.6152V38.9963H84.8957V43.9851C84.8957 44.4579 85.2682 44.8329 85.7198 44.8329H90.0542C90.5138 44.8329 90.8783 44.4579 90.8783 43.9851ZM89.1588 43.4227C89.1588 43.5205 89.0795 43.602 88.9845 43.602H86.7895C86.6945 43.602 86.6152 43.5205 86.6152 43.4227V41.9391H89.1588V43.4227Z" fill="#00458D"/>
<path d="M88.3195 49.8138V49.2432C88.3195 49.1454 88.3908 49.072 88.4859 49.072H93.3829C93.8266 49.072 94.1911 48.697 94.1911 48.2405V46.6265C94.1911 46.1619 93.8266 45.7951 93.3829 45.7951H86.6V46.9607H92.3052C92.4003 46.9607 92.4716 47.0341 92.4716 47.1319V47.7351C92.4716 47.833 92.3924 47.9063 92.3052 47.9063H87.4083C86.9566 47.9063 86.6 48.2813 86.6 48.7378V50.311C86.6 50.7675 86.9645 51.1425 87.4083 51.1425H94.2624V49.985H88.4859C88.3908 49.985 88.3195 49.9035 88.3195 49.8138Z" fill="#00458D"/>
<path d="M4.45338 49.7484V46.8546H2.74183V50.3027C2.74183 50.7674 3.10633 51.1505 3.56591 51.1505H10.6498V49.9359H4.63563C4.54054 49.9359 4.4613 49.8544 4.4613 49.7647L4.45338 49.7484Z" fill="#00458D"/>
<path d="M10.4355 38.744H8.71606V47.3929H10.4355V43.0073H12.1629V41.7764H10.4355V38.744Z" fill="#00458D"/>
<path d="M6.78281 42.95C6.78281 42.1838 6.53717 41.5317 6.11721 41.0426H7.34541V39.828H4.51659V38.3607H2.82881V39.828H0V41.0426H1.2282C0.816156 41.5398 0.562593 42.1838 0.562593 42.95C0.562593 44.7597 1.92549 45.9172 3.66874 45.9172C5.41199 45.9172 6.77489 44.7597 6.77489 42.95H6.78281ZM2.30584 42.95C2.30584 41.8985 2.84466 41.2301 3.67666 41.2301C4.50867 41.2301 5.04749 41.8985 5.04749 42.95C5.04749 44.0016 4.50867 44.67 3.67666 44.67C2.84466 44.67 2.30584 44.0016 2.30584 42.95Z" fill="#00458D"/>
<path d="M58.6443 38.744H56.9248V47.3929H58.6443V43.0073H60.3717V41.7764H58.6443V38.744Z" fill="#00458D"/>
<path d="M135.791 40.6757V38.9231H134.032V40.6757C134.032 42.0941 133.636 45.2814 130.997 47.0095L131.742 47.9551C132.186 47.7187 134.151 46.4144 134.904 44.5396C135.656 46.4144 137.621 47.7187 138.065 47.9551L138.81 47.0095C136.179 45.2814 135.775 42.0941 135.775 40.6757H135.791Z" fill="#00458D"/>
<path d="M141.259 42.4693V38.744H139.539V51.3546H141.259V43.6839H142.994V42.4693H141.259Z" fill="#00458D"/>
<path d="M111.346 42.95C112.344 44.8167 114.396 45.5748 114.396 45.5748L115.046 44.4499C112.431 43.3005 112.233 40.5697 112.217 39.4856V38.9231H110.474V39.4856C110.458 40.5697 110.292 43.2761 107.645 44.4499L108.295 45.5748C108.295 45.5748 110.347 44.8086 111.346 42.95Z" fill="#00458D"/>
<path d="M118.026 38.744H116.306V45.7055H118.026V38.744Z" fill="#00458D"/>
<path d="M117.202 46.5774H110.054V47.792H116.14C116.235 47.792 116.314 47.8735 116.314 47.9713V51.3461H118.034V47.417C118.034 46.9524 117.669 46.5692 117.21 46.5692L117.202 46.5774Z" fill="#00458D"/>
<path d="M128.263 46.1211C127.479 46.8058 126.465 47.0992 124.808 47.1971C124.745 47.1971 124.579 47.2052 124.515 47.2134V45.7053C125.791 45.4119 126.702 44.4581 126.702 43.0887C126.702 42.3958 126.465 41.8089 126.076 41.3605H127.376V40.1459H124.515V38.5808H122.827V40.1459H119.967V41.3605H121.266C120.87 41.8089 120.64 42.3958 120.64 43.0887C120.64 44.45 121.536 45.4037 122.796 45.7053V47.2378H119.745V48.4606H122.915C124.278 48.4606 126.56 48.5258 128.255 47.4824V51.3625H129.975V38.752H128.255V46.1292L128.263 46.1211ZM122.384 43.0887C122.384 42.192 122.891 41.6132 123.675 41.6132C124.46 41.6132 124.967 42.1838 124.967 43.0887C124.967 43.9935 124.46 44.5641 123.675 44.5641C122.891 44.5641 122.384 43.9853 122.384 43.0887Z" fill="#00458D"/>
<path d="M96.132 46.9199H100.965V51.3544H102.669V46.9199H107.503V45.6971H96.132V46.9199Z" fill="#00458D"/>
<path d="M96.9399 43.4638L97.2886 44.5806C99.325 44.2871 100.815 43.6676 101.813 42.3144C102.812 43.6676 104.309 44.2871 106.338 44.5806L106.686 43.4638C104.816 43.0807 103.01 42.2003 102.716 40.1869H105.823V38.9804H97.8036V40.1869H100.91C100.617 42.2003 98.81 43.0807 96.9399 43.4638Z" fill="#00458D"/>
<path d="M64.1911 13.7593H55.6096C51.6001 13.7593 49.7776 16.4249 49.2784 18.3324L45.8791 31.3831H47.2024C49.0328 31.3831 50.3719 30.8043 50.681 29.7446C51.3862 27.0301 52.7966 21.6256 53.5019 18.903C53.7792 17.8433 54.8172 17.2808 55.5383 17.2808C57.8441 17.2808 61.8219 17.2808 61.8219 17.2808C62.9154 17.2808 64.2545 17.4601 63.6523 19.5306C63.3116 20.7615 62.2419 21.3811 60.4352 21.3811H57.6223C55.7681 21.3811 54.4131 21.968 54.1278 23.0603L53.6445 24.8944H59.7617C63.5334 24.8944 66.8535 24.0792 68.0738 19.3921C69.1039 15.4304 67.2894 13.7512 64.1911 13.7512V13.7593Z" fill="#00458D"/>
<path d="M80.6884 13.262H79.8168C74.8723 13.262 69.9753 16.6367 68.6996 21.5521L68.1687 23.5982C66.8851 28.5136 70.0229 31.8884 74.9674 31.8884H75.839C80.7835 31.8884 85.6804 28.5136 86.9562 23.5982L87.4871 21.5521C88.7707 16.6367 85.6329 13.262 80.6805 13.262H80.6884ZM82.8595 22.2695L82.6694 22.995C81.7502 26.5328 79.0006 28.4484 76.7344 28.4484H75.8865C73.6283 28.4484 71.8692 26.5328 72.7962 22.995L72.9864 22.2695C73.9056 18.7317 76.6552 16.8161 78.9135 16.8161H79.7613C82.0196 16.8161 83.7708 18.7317 82.8516 22.2695H82.8595Z" fill="#00458D"/>
<path d="M137.336 13.262H136.464C131.52 13.262 126.623 16.6367 125.347 21.5521L124.816 23.5982C123.533 28.5136 126.671 31.8884 131.615 31.8884H132.487C137.431 31.8884 142.328 28.5136 143.604 23.5982L144.135 21.5521C145.418 16.6367 142.28 13.262 137.336 13.262ZM139.507 22.2695L139.317 22.995C138.39 26.5328 135.648 28.4484 133.382 28.4484H132.526C130.276 28.4484 128.517 26.5328 129.444 22.995L129.634 22.2695C130.553 18.7317 133.303 16.8161 135.561 16.8161H136.409C138.667 16.8161 140.418 18.7317 139.499 22.2695H139.507Z" fill="#00458D"/>
<path d="M28.6368 10.3925H24.1994C22.3849 10.3925 20.911 11.0283 20.079 11.7538L9.35014 19.7098C10.2059 16.4165 11.0538 13.1803 11.7748 10.4006H8.67661C6.75904 10.4006 5.3486 11.0038 5.01579 12.1125L0 31.3829H3.0903C5.04749 31.3829 6.47378 30.7633 6.77489 29.614C7.39295 27.2418 8.0744 24.6252 8.76377 21.9841L14.9681 29.9645C15.5704 30.7389 16.2439 31.3829 18.4388 31.3829H23.1772L15.087 21.0629L28.6368 10.4006V10.3925Z" fill="#00458D"/>
<path d="M41.5208 20.6474H35.57C33.9614 20.6474 33.2008 20.3214 33.6128 18.8948C33.9535 17.6721 34.9678 17.2726 36.7665 17.2726H44.2862C46.1404 17.2726 47.4954 16.6857 47.7806 15.5934L48.2561 13.7512H37.4479C33.6841 13.7512 30.3403 14.6478 29.1913 19.0334C28.3989 22.0821 29.8411 24.1852 33.2008 24.1689H39.1436C40.7997 24.1689 41.497 24.5357 41.0771 26.0112C40.7363 27.2421 39.6666 27.8534 37.86 27.8534H30.2531C28.3989 27.8534 27.0439 28.4404 26.7587 29.5327L26.2753 31.3749H37.1706C41.2435 31.3749 44.31 30.3804 45.4827 25.8726C46.4098 22.3185 44.4447 20.6393 41.497 20.6393L41.5208 20.6474Z" fill="#00458D"/>
<path d="M105.498 22.7995H103.517C102.606 22.7995 101.758 23.2315 101.425 23.8674C101.061 24.5521 100.459 25.4732 99.9514 25.9542L97.606 22.775C102.535 20.9083 103.097 17.4194 101.449 15.8951C100.007 14.5582 96.8136 14.4278 94.3493 15.8625C91.3145 17.6314 91.9642 20.191 93.129 22.1066L92.6536 22.3267C90.0466 23.5087 88.446 24.7477 87.9151 27.0057C87.3525 29.4268 89.3414 31.7907 92.8675 31.7907C95.5537 31.7907 97.194 31 98.8183 29.9974L99.8326 31.4076H103.89L101.497 28.098C102.907 27.0057 104.951 24.2342 105.506 22.7913L105.498 22.7995ZM97.5426 17.0363C100.284 17.0363 99.1591 19.2291 98.0735 19.8568C97.7565 20.0443 96.7344 20.6067 96.1876 20.835C95.7756 20.2725 95.522 19.7263 95.4111 19.5062C94.7138 18.1531 96.0688 17.0363 97.5426 17.0363ZM93.4539 29.2311C91.3145 29.2311 90.7994 27.7312 90.9896 27.0302C91.3065 25.8074 92.8517 24.9923 94.6029 24.1527L97.3287 27.935C96.4729 28.6116 94.6266 29.223 93.4539 29.223V29.2311Z" fill="#00458D"/>
<path d="M113.01 18.8948C113.287 17.8351 114.333 17.2726 115.046 17.2726C117.36 17.2726 123.215 17.2726 123.215 17.2726C124.57 17.2726 125.505 16.4819 125.696 15.7646L126.219 13.7512H115.109C111.1 13.7512 109.277 16.4167 108.778 18.3242L106.678 26.2394C105.902 29.2066 107.265 31.3912 110.688 31.3749H119.975C121.33 31.3749 122.265 30.5842 122.455 29.8587L122.978 27.8534H112.994C111.464 27.8453 110.68 27.5437 111.1 26.1008C111.1 26.1008 112.304 21.6093 113.01 18.8867V18.8948Z" fill="#00458D"/>
<path d="M153.279 6.81429C152.922 6.60235 152.764 6.60235 152.478 6.92026C151.322 8.20006 149.261 10.6211 148.223 11.8275C149.626 13.9062 150.68 17.2565 150.07 21.5442C149.982 21.8377 150.157 22.0333 150.418 21.7725C153.049 19.0335 155.981 16.0256 158.619 13.9796C157.574 10.6945 155.26 7.96367 153.295 6.80614L153.279 6.81429Z" fill="#F39800"/>
<path d="M136.972 6.10491C136.829 6.18643 136.829 6.39837 136.972 6.39837C140.704 6.3087 143.192 7.18908 145.268 8.73788C147.629 6.75704 151.615 3.64313 153.556 2.62418C154.325 2.43669 155.696 2.27366 156.623 2.24105C155.814 3.12958 154.673 4.43383 154.032 5.15933C153.865 5.34681 154.032 5.50985 154.222 5.43648C159.523 3.29261 166.559 1.65414 172.296 1.23025C159.206 -1.58205 146.528 0.586276 136.979 6.11306L136.972 6.10491Z" fill="#00458D"/>
<path d="M174.206 1.67848C169.103 2.30616 162.28 4.61306 158.802 6.47163C158.318 6.73248 158.405 6.91182 158.778 7.083C159.911 7.6047 161.924 8.89266 163.065 10.7023C170.553 6.10481 176.923 3.83051 179.087 3.08056C177.478 2.54255 175.775 2.06161 174.214 1.67848H174.206Z" fill="#009DE1"/>
<path d="M170.497 31.4631C175.249 31.4631 178 32.7153 178.023 35.0149C178 37.0641 175.784 38.2822 171.884 38.4985V39.7052H179.933V42.0048H161.062V39.7052H169.02V38.4985C165.155 38.2594 162.949 37.0413 162.949 35.0149C162.949 32.7153 165.723 31.4631 170.497 31.4631ZM170.497 33.6033C167.451 33.6033 165.973 34.0587 165.996 35.0149C165.973 36.0167 167.451 36.4266 170.497 36.4266C173.567 36.4266 175.022 36.0167 175.022 35.0149C175.022 34.0587 173.567 33.6033 170.497 33.6033ZM177.636 43.1432V48.4254H166.109V49.6776H178.182V51.8634H163.268V46.399H174.772V45.3062H163.245V43.1432H177.636Z" fill="#00458D"/>
<path d="M198.508 31.3037V43.5758H195.598V31.3037H198.508ZM191.846 32.4877V38.7034H185.116V40.5021C188.572 40.4907 191.005 40.3882 193.801 39.9329L194.165 42.2552C190.982 42.7561 188.209 42.87 184.093 42.87H182.275V36.4949H188.959V34.7645H182.252V32.4877H191.846ZM198.508 44.4865V51.7723H184.639V44.4865H198.508ZM187.504 46.7861V49.45H195.666V46.7861H187.504Z" fill="#00458D"/>
<path d="M213.445 32.7609V35.1288H211.74V40.5021C212.593 40.4565 213.434 40.3882 214.241 40.2971L214.445 42.4146C210.239 43.0749 205.579 43.1659 201.964 43.1659L201.645 40.7753L203.873 40.7525V35.1288H202.191V32.7609H213.445ZM218.629 44.7825V52H215.719V47.1048H204.396V44.7825H218.629ZM218.629 31.2809V43.9628H215.719V31.2809H218.629ZM206.647 40.7297L208.943 40.6614V35.1288H206.647V40.7297Z" fill="#00458D"/>
<path d="M229.792 33.5805V35.8574H224.813V39.1587H228.974V41.3673H224.813V45.0785C227.03 45.0671 228.667 44.9419 230.588 44.6231L230.838 46.9682C228.473 47.4008 226.473 47.4236 223.449 47.4236H222.062V33.5805H229.792ZM239.364 31.2809V52H236.567V31.2809H239.364ZM234.976 31.6452V51.0665H232.27V41.1623H229.951V38.84H232.27V31.6452H234.976Z" fill="#00458D"/>
<path d="M258.939 31.2809V52H256.052V31.2809H258.939ZM245.525 33.2618V44.3954C248.322 44.3613 251.323 44.0994 254.369 43.5075L254.733 45.8981C251.095 46.6495 247.685 46.8999 244.479 46.8772H242.66V33.2618H245.525Z" fill="#00458D"/>
<path d="M272.558 34.0131C272.558 37.0413 275.241 40.2972 279.924 41.094L278.651 43.5075C275.047 42.7903 272.365 40.7639 271.034 38.0886C269.659 40.7411 266.976 42.7789 263.395 43.5075L262.145 41.094C266.737 40.2744 269.443 37.0185 269.466 34.0131V32.5104H272.558V34.0131ZM280.606 47.0593V49.45H261.667V47.0593H280.606Z" fill="#00458D"/>
<path d="M293.543 32.6698V34.9922H289.428C289.45 37.4056 290.894 39.7393 294.202 40.707L292.815 42.9838C290.53 42.2894 288.95 40.9005 288.041 39.1132C287.12 41.2079 285.437 42.87 282.948 43.6896L281.47 41.39C284.903 40.3085 286.449 37.6219 286.495 34.9922H282.266V32.6698H293.543ZM298.204 31.2809V36.085H301V38.4529H298.204V43.5758H295.293V31.2809H298.204ZM291.428 43.9856C295.725 43.9628 298.408 45.4428 298.408 47.97C298.408 50.4973 295.725 52 291.428 52C287.04 52 284.335 50.4973 284.335 47.97C284.335 45.4428 287.04 43.9628 291.428 43.9856ZM291.428 46.2397C288.7 46.2397 287.222 46.8089 287.245 47.97C287.222 49.154 288.7 49.7459 291.428 49.7459C294.111 49.7459 295.543 49.154 295.543 47.97C295.543 46.8089 294.111 46.2397 291.428 46.2397Z" fill="#00458D"/>
</svg>
