<svg width="60" height="60" viewBox="0 0 60 60" fill="none" xmlns="http://www.w3.org/2000/svg">
<path d="M0 8C0 3.58172 3.58172 0 8 0H60V60H8C3.58172 60 0 56.4183 0 52V8Z" fill="#F39800"/>
<path d="M38.89 12.75V14.605H33.302L33.445 27.343H31.569L31.426 14.605H25.838V12.75H38.89ZM20.25 17.4H29.57V19.277H25.838L25.981 27.344H24.126L23.983 19.277H20.25V17.4Z" fill="white"/>
<path d="M25.838 12.5H38.89C38.9563 12.5 39.0199 12.5263 39.0668 12.5732C39.1137 12.6201 39.14 12.6837 39.14 12.75V14.605C39.14 14.6713 39.1137 14.7349 39.0668 14.7818C39.0199 14.8287 38.9563 14.855 38.89 14.855H33.555L33.696 27.34C33.6965 27.3731 33.6903 27.406 33.678 27.4367C33.6656 27.4675 33.6473 27.4954 33.624 27.519C33.6007 27.5425 33.573 27.5611 33.5424 27.5738C33.5119 27.5865 33.4791 27.5931 33.446 27.593H31.569C31.5032 27.593 31.4401 27.5671 31.3933 27.5208C31.3465 27.4746 31.3198 27.4118 31.319 27.346L31.178 14.855H25.838C25.7717 14.855 25.7081 14.8287 25.6612 14.7818C25.6143 14.7349 25.588 14.6713 25.588 14.605V12.75C25.588 12.6837 25.6143 12.6201 25.6612 12.5732C25.7081 12.5263 25.7717 12.5 25.838 12.5ZM38.638 13H26.088V14.355H31.425C31.4908 14.355 31.5539 14.3809 31.6007 14.4272C31.6475 14.4734 31.6742 14.5362 31.675 14.602L31.816 27.093H33.193L33.052 14.608C33.0515 14.5749 33.0577 14.542 33.07 14.5113C33.0824 14.4805 33.1007 14.4526 33.124 14.429C33.1473 14.4055 33.175 14.3869 33.2056 14.3742C33.2361 14.3615 33.2689 14.3549 33.302 14.355H38.639L38.638 13ZM20.25 17.149H29.57C29.6363 17.149 29.6999 17.1753 29.7468 17.2222C29.7937 17.2691 29.82 17.3327 29.82 17.399V19.276C29.82 19.3423 29.7937 19.4059 29.7468 19.4528C29.6999 19.4997 29.6363 19.526 29.57 19.526H26.092L26.231 27.339C26.2316 27.3723 26.2255 27.4054 26.2132 27.4363C26.2008 27.4672 26.1824 27.4953 26.159 27.519C26.1358 27.5427 26.1081 27.5615 26.0775 27.5744C26.047 27.5873 26.0142 27.5939 25.981 27.594H24.126C24.0604 27.594 23.9974 27.5682 23.9506 27.5222C23.9039 27.4762 23.8771 27.4136 23.876 27.348L23.737 19.526H20.25C20.1837 19.526 20.1201 19.4997 20.0732 19.4528C20.0263 19.4059 20 19.3423 20 19.276V17.4C19.9999 17.3671 20.0062 17.3345 20.0187 17.304C20.0312 17.2736 20.0496 17.2459 20.0729 17.2226C20.0961 17.1993 20.1237 17.1808 20.1541 17.1681C20.1845 17.1555 20.2171 17.149 20.25 17.149ZM29.32 17.649H20.5V19.026H23.982C24.0476 19.026 24.1106 19.0518 24.1574 19.0978C24.2041 19.1438 24.231 19.2064 24.232 19.272L24.371 27.094H25.727L25.588 19.28C25.5874 19.2467 25.5935 19.2136 25.6058 19.1827C25.6182 19.1518 25.6366 19.1237 25.66 19.1C25.6832 19.0763 25.7109 19.0575 25.7415 19.0446C25.772 19.0317 25.8048 19.0251 25.838 19.025H29.32V17.649Z" fill="white"/>
<path d="M16.2051 35.8223V36.6699C16.2051 37.4697 16.2051 38.4678 15.9727 39.7188H17.5586V41.0859H6.16992V39.7188H14.209C14.4141 38.707 14.4551 37.8936 14.4688 37.2031H7.56445V35.8223H16.2051ZM16.1504 41.9609V45.4473H9.20508V46.3223H16.4922V47.6621H7.46875V44.1348H14.4277V43.3145H7.45508V41.9609H16.1504ZM22.8633 38.707C22.8496 40.6074 23.8613 42.7949 25.9121 43.7383L24.9414 45.1055C23.5537 44.4697 22.5625 43.1982 22.0156 41.7012C21.4551 43.3486 20.4365 44.7432 18.9941 45.4199L17.9824 44.0391C20.0605 43.0684 21.0996 40.7578 21.1133 38.707V37.9414H18.4746V36.5195H25.3652V37.9414H22.8633V38.707ZM28.0859 35.3164V40.0605H29.918V41.5234H28.0859V47.7578H26.3359V35.3164H28.0859ZM37.4375 36.041V37.4355H34.9629C34.9766 38.8916 35.8379 40.3818 37.8613 41.0312L36.9727 42.3848C35.5918 41.9404 34.6416 41.0518 34.1016 39.9375C33.5479 41.1543 32.5566 42.1182 31.1074 42.5898L30.1777 41.25C32.2354 40.5869 33.1719 38.9941 33.1992 37.4355H30.6562V36.041H37.4375ZM40.2402 35.3164V38.3379H41.9219V39.7871H40.2402V42.8223H38.4902V35.3164H40.2402ZM40.2402 43.3555V47.7578H38.4902V44.7363H31.8594V43.3555H40.2402ZM53.2559 35.3164V47.7578H51.6152V35.3164H53.2559ZM50.6035 35.5898V47.2109H48.9766V41.4961H46.9395C46.2285 42.918 45.0732 44.1484 43.3027 45.1738L42.3184 43.9434C44.8271 42.4531 45.9346 40.6416 46.1738 38.2012H43.002V36.793H47.9102C47.9033 37.9756 47.7803 39.0898 47.4863 40.1152H48.9766V35.5898H50.6035Z" fill="white"/>
</svg>
