<svg width="80" height="80" viewBox="0 0 80 80" fill="none" xmlns="http://www.w3.org/2000/svg">
<rect width="80" height="80" rx="40" fill="#0189FF"/>
<path d="M52.4456 20.0498V22.6468H44.6224L44.8226 40.48H42.1962L41.996 22.6468H34.1728V20.0498H52.4456ZM26.3496 26.5598H39.3976V29.1876H34.1728L34.373 40.4814H31.776L31.5758 29.1876H26.3496V26.5598Z" fill="white"/>
<path d="M34.1732 19.7002H52.446C52.5388 19.7002 52.6279 19.7371 52.6935 19.8027C52.7591 19.8683 52.796 19.9574 52.796 20.0502V22.6472C52.796 22.74 52.7591 22.829 52.6935 22.8947C52.6279 22.9603 52.5388 22.9972 52.446 22.9972H44.977L45.1744 40.4762C45.175 40.5226 45.1665 40.5686 45.1492 40.6116C45.1318 40.6546 45.1062 40.6938 45.0736 40.7268C45.041 40.7597 45.0022 40.7858 44.9594 40.8036C44.9166 40.8214 44.8707 40.8305 44.8244 40.8304H42.1966C42.1045 40.8304 42.0161 40.7941 41.9506 40.7294C41.8851 40.6646 41.8477 40.5767 41.8466 40.4846L41.6492 22.9972H34.1732C34.0804 22.9972 33.9914 22.9603 33.9257 22.8947C33.8601 22.829 33.8232 22.74 33.8232 22.6472V20.0502C33.8232 19.9574 33.8601 19.8683 33.9257 19.8027C33.9914 19.7371 34.0804 19.7002 34.1732 19.7002ZM52.0932 20.4002H34.5232V22.2972H41.995C42.0871 22.2972 42.1755 22.3335 42.241 22.3982C42.3065 22.463 42.3439 22.5509 42.345 22.643L42.5424 40.1304H44.4702L44.2728 22.6514C44.2722 22.605 44.2808 22.559 44.2981 22.516C44.3154 22.473 44.341 22.4338 44.3736 22.4008C44.4062 22.3679 44.445 22.3418 44.4878 22.324C44.5306 22.3062 44.5765 22.2971 44.6228 22.2972H52.0946L52.0932 20.4002ZM26.35 26.2088H39.398C39.4908 26.2088 39.5799 26.2457 39.6455 26.3113C39.7111 26.3769 39.748 26.466 39.748 26.5588V29.1866C39.748 29.2794 39.7111 29.3684 39.6455 29.4341C39.5799 29.4997 39.4908 29.5366 39.398 29.5366H34.5288L34.7234 40.4748C34.7242 40.5214 34.7157 40.5677 34.6984 40.611C34.6811 40.6542 34.6553 40.6936 34.6226 40.7268C34.5901 40.7599 34.5513 40.7863 34.5086 40.8043C34.4658 40.8224 34.4198 40.8317 34.3734 40.8318H31.7764C31.6845 40.8318 31.5964 40.7957 31.5309 40.7313C31.4654 40.6668 31.4279 40.5792 31.4264 40.4874L31.2318 29.5366H26.35C26.2572 29.5366 26.1682 29.4997 26.1025 29.4341C26.0369 29.3684 26 29.2794 26 29.1866V26.5602C25.9998 26.5141 26.0087 26.4685 26.0262 26.4258C26.0437 26.3832 26.0695 26.3445 26.102 26.3118C26.1345 26.2792 26.1732 26.2532 26.2157 26.2356C26.2583 26.2179 26.3039 26.2088 26.35 26.2088ZM39.048 26.9088H26.7V28.8366H31.5748C31.6667 28.8366 31.7549 28.8727 31.8203 28.9371C31.8858 29.0016 31.9233 29.0891 31.9248 29.181L32.1194 40.1318H34.0178L33.8232 29.1922C33.8224 29.1456 33.8309 29.0993 33.8482 29.056C33.8655 29.0128 33.8913 28.9734 33.924 28.9402C33.9565 28.907 33.9953 28.8807 34.0381 28.8627C34.0808 28.8446 34.1268 28.8353 34.1732 28.8352H39.048V26.9088Z" fill="white"/>
<path d="M25.7402 49.9316V50.7383C25.7402 51.5518 25.7402 52.5771 25.4805 53.9102H27.1621V54.9492H15.9512V53.9102H24.1816C24.4277 52.666 24.4551 51.7295 24.4551 50.9707H17.3594V49.9316H25.7402ZM25.7539 56.043V59.2559H18.5762V60.5H26.0684V61.5391H17.2773V58.2578H24.4688V57.082H17.2637V56.043H25.7539ZM32.3164 53.0215C32.3164 54.9629 33.5879 57.123 35.4473 57.998L34.709 59.0098C33.335 58.3467 32.248 56.9658 31.7012 55.3594C31.1338 57.1162 29.9854 58.627 28.584 59.3242L27.8184 58.2988C29.6777 57.4102 31.0312 55.0996 31.0312 53.0215V51.7227H28.2695V50.6426H34.9824V51.7227H32.3164V53.0215ZM37.5938 49.4121V54.2656H39.5625V55.3594H37.5938V61.6621H36.2949V49.4121H37.5938ZM44.4297 51.6133C44.4297 53.1719 45.5098 54.6621 47.3828 55.291L46.7266 56.3027C45.3389 55.8242 44.3203 54.8672 43.7871 53.6641C43.2539 54.9902 42.1943 56.0293 40.752 56.5352L40.0547 55.5234C41.9688 54.8672 43.1172 53.2949 43.1309 51.5996V51.2715H40.4375V50.2188H47.0684V51.2715H44.4297V51.6133ZM49.7754 49.4121V52.5566H51.5527V53.6504H49.7754V56.7949H48.4766V49.4121H49.7754ZM49.7754 57.3965V61.6621H48.4766V58.4492H41.6816V57.3965H49.7754ZM62.7773 49.4121V61.6621H61.5469V49.4121H62.7773ZM60.1934 49.7266V61.0605H58.9629V55.373H56.5703C55.8389 56.7949 54.6768 58.0391 52.9473 59.0508L52.209 58.1211C54.8066 56.5762 56.0576 54.5186 56.2832 51.9961H52.7832V50.9297H57.5684C57.5615 52.126 57.3975 53.2676 57.0215 54.334H58.9629V49.7266H60.1934Z" fill="white"/>
</svg>
