<svg width="88" height="88" viewBox="0 0 88 88" fill="none" xmlns="http://www.w3.org/2000/svg">
<path d="M0 20C0 8.95431 8.95431 0 20 0H88V88H20C8.95431 88 0 79.0457 0 68V20Z" fill="#F97C00"/>
<path d="M56.4476 23.0503V25.6473H48.6244L48.8246 43.4805H46.1982L45.998 25.6473H38.1748V23.0503H56.4476ZM30.3516 29.5603H43.3996V32.1881H38.1748L38.375 43.4819H35.778L35.5778 32.1881H30.3516V29.5603Z" fill="white"/>
<path d="M38.1732 22.7002H56.446C56.5388 22.7002 56.6279 22.7371 56.6935 22.8027C56.7591 22.8683 56.796 22.9574 56.796 23.0502V25.6472C56.796 25.74 56.7591 25.829 56.6935 25.8947C56.6279 25.9603 56.5388 25.9972 56.446 25.9972H48.977L49.1744 43.4762C49.175 43.5226 49.1665 43.5686 49.1492 43.6116C49.1318 43.6546 49.1062 43.6938 49.0736 43.7268C49.041 43.7597 49.0022 43.7858 48.9594 43.8036C48.9166 43.8214 48.8707 43.8305 48.8244 43.8304H46.1966C46.1045 43.8304 46.0161 43.7941 45.9506 43.7294C45.8851 43.6646 45.8477 43.5767 45.8466 43.4846L45.6492 25.9972H38.1732C38.0804 25.9972 37.9914 25.9603 37.9257 25.8947C37.8601 25.829 37.8232 25.74 37.8232 25.6472V23.0502C37.8232 22.9574 37.8601 22.8683 37.9257 22.8027C37.9914 22.7371 38.0804 22.7002 38.1732 22.7002ZM56.0932 23.4002H38.5232V25.2972H45.995C46.0871 25.2972 46.1755 25.3335 46.241 25.3982C46.3065 25.463 46.3439 25.5509 46.345 25.643L46.5424 43.1304H48.4702L48.2728 25.6514C48.2722 25.605 48.2807 25.559 48.2981 25.516C48.3154 25.473 48.341 25.4338 48.3736 25.4008C48.4062 25.3679 48.445 25.3418 48.4878 25.324C48.5306 25.3062 48.5765 25.2971 48.6228 25.2972H56.0946L56.0932 23.4002ZM30.35 29.2088H43.398C43.4908 29.2088 43.5799 29.2457 43.6455 29.3113C43.7111 29.3769 43.748 29.466 43.748 29.5588V32.1866C43.748 32.2794 43.7111 32.3684 43.6455 32.4341C43.5799 32.4997 43.4908 32.5366 43.398 32.5366H38.5288L38.7234 43.4748C38.7242 43.5214 38.7157 43.5677 38.6984 43.611C38.6811 43.6542 38.6553 43.6936 38.6226 43.7268C38.5901 43.7599 38.5513 43.7863 38.5086 43.8043C38.4658 43.8224 38.4198 43.8317 38.3734 43.8318H35.7764C35.6845 43.8318 35.5964 43.7957 35.5309 43.7313C35.4654 43.6668 35.4279 43.5792 35.4264 43.4874L35.2318 32.5366H30.35C30.2572 32.5366 30.1682 32.4997 30.1025 32.4341C30.0369 32.3684 30 32.2794 30 32.1866V29.5602C29.9998 29.5141 30.0087 29.4685 30.0262 29.4258C30.0437 29.3832 30.0695 29.3445 30.102 29.3118C30.1345 29.2792 30.1732 29.2532 30.2157 29.2356C30.2583 29.2179 30.3039 29.2088 30.35 29.2088ZM43.048 29.9088H30.7V31.8366H35.5748C35.6667 31.8366 35.7549 31.8727 35.8203 31.9371C35.8858 32.0016 35.9233 32.0891 35.9248 32.181L36.1194 43.1318H38.0178L37.8232 32.1922C37.8224 32.1456 37.8309 32.0993 37.8482 32.056C37.8655 32.0128 37.8913 31.9734 37.924 31.9402C37.9565 31.907 37.9953 31.8807 38.0381 31.8627C38.0808 31.8446 38.1268 31.8353 38.1732 31.8352H43.048V29.9088Z" fill="white"/>
<path d="M25.877 51.7715V52.8613C25.877 53.8896 25.877 55.1729 25.5781 56.7812H27.6172V58.5391H12.9746V56.7812H23.3105C23.5742 55.4805 23.627 54.4346 23.6445 53.5469H14.7676V51.7715H25.877ZM25.8066 59.6641V64.1465H16.877V65.2715H26.2461V66.9941H14.6445V62.459H23.5918V61.4043H14.627V59.6641H25.8066ZM34.4375 55.4805C34.4199 57.9238 35.7207 60.7363 38.3574 61.9492L37.1094 63.707C35.3252 62.8896 34.0508 61.2549 33.3477 59.3301C32.627 61.4482 31.3174 63.2412 29.4629 64.1113L28.1621 62.3359C30.834 61.0879 32.1699 58.1172 32.1875 55.4805V54.4961H28.7949V52.668H37.6543V54.4961H34.4375V55.4805ZM41.1523 51.1211V57.2207H43.5078V59.1016H41.1523V67.1172H38.9023V51.1211H41.1523ZM57.1836 52.5273V54.3906C57.1836 56.7109 57.1836 58.9434 56.4453 62.4062L54.2129 62.1953C54.5293 60.8594 54.7051 59.6904 54.8281 58.6094L45.5469 59.0664L45.2656 57.2734L54.9336 56.9219C54.9775 56.0518 54.9775 55.2168 54.9863 54.3906V54.3203H45.7578V52.5273H57.1836ZM58.6777 63.373V65.2012H44.0879V63.373H58.6777ZM73.5137 51.1211V67.1172H71.4043V51.1211H73.5137ZM70.1035 51.4727V66.4141H68.0117V59.0664H65.3926C64.4785 60.8945 62.9932 62.4766 60.7168 63.7949L59.4512 62.2129C62.6768 60.2969 64.1006 57.9678 64.4082 54.8301H60.3301V53.0195H66.6406C66.6318 54.54 66.4736 55.9727 66.0957 57.291H68.0117V51.4727H70.1035Z" fill="white"/>
</svg>
