<svg width="20" height="20" viewBox="0 0 20 20" fill="none" xmlns="http://www.w3.org/2000/svg">
<g clip-path="url(#clip0_2071_5292)">
<path d="M12.5018 6.25004L5.99325 12.8664C5.76454 13.102 5.63771 13.4182 5.64018 13.7465C5.64266 14.0749 5.77423 14.3891 6.00646 14.6212C6.23869 14.8533 6.55294 14.9848 6.88129 14.9871C7.20964 14.9894 7.52572 14.8625 7.76122 14.6336L15.5198 6.76801C15.9887 6.29912 16.2521 5.66316 16.2521 5.00004C16.2521 4.33692 15.9887 3.70097 15.5198 3.23207C15.0509 2.76318 14.415 2.49976 13.7518 2.49976C13.0887 2.49976 12.4528 2.76318 11.9839 3.23207L4.22528 11.0985C3.53148 11.8037 3.14444 12.7545 3.14847 13.7437C3.1525 14.733 3.54727 15.6806 4.24679 16.3801C4.94631 17.0796 5.8939 17.4744 6.88317 17.4784C7.87243 17.4824 8.82321 17.0954 9.52841 16.4016L15.9393 10" stroke="#727272" stroke-width="1.5" stroke-linecap="round" stroke-linejoin="round"/>
</g>
<defs>
<clipPath id="clip0_2071_5292">
<rect width="20" height="20" fill="white"/>
</clipPath>
</defs>
</svg>
