<svg width="28" height="28" viewBox="0 0 28 28" fill="none" xmlns="http://www.w3.org/2000/svg">
<path d="M6 6C6 5.44772 6.44772 5 7 5H15.9738C16.2461 5 16.5066 5.11104 16.6952 5.30747L21.7214 10.5431C21.9002 10.7293 22 10.9775 22 11.2356V24C22 24.5523 21.5523 25 21 25H7C6.44772 25 6 24.5523 6 24V6Z" stroke="#666666" stroke-width="1.5"/>
<path d="M22 11L16.2 11C16.0895 11 16 10.9105 16 10.8L16 5" stroke="#666666" stroke-width="1.5" stroke-linecap="round"/>
<rect x="9" y="15" width="10" height="1.2" rx="0.6" fill="#666666"/>
<rect x="9" y="18" width="10" height="1.2" rx="0.6" fill="#666666"/>
</svg>
