<svg width="28" height="28" viewBox="0 0 28 28" fill="none" xmlns="http://www.w3.org/2000/svg">
<g clip-path="url(#clip0_1292_3899)">
<path d="M11 4L19 4.00009C19.5523 4.00009 20 4.44781 20 5.00009V9.4725M11 25H19C19.5523 25 20 24.5523 20 24V19.5516" stroke="#666666" stroke-width="1.2" stroke-linecap="round"/>
<path d="M10.1592 2.06934C10.4207 1.9712 10.6992 2.16404 10.6992 2.44336V26.9541C10.6992 27.1987 10.4856 27.3778 10.2568 27.3525L10.1582 27.3291L0.859375 23.8242C0.703565 23.7655 0.599609 23.6167 0.599609 23.4502V5.93359C0.599609 5.78771 0.679335 5.65503 0.803711 5.58496L0.859375 5.55859L10.1592 2.06934Z" stroke="#666666" stroke-width="1.2"/>
<path d="M23.5879 11.4622C23.8222 11.2281 24.2013 11.2281 24.4355 11.4622L27.3613 14.3879C27.6343 14.6612 27.6343 15.1039 27.3613 15.3772L24.4355 18.303C24.2013 18.5371 23.8222 18.5371 23.5879 18.303C23.3536 18.0687 23.3537 17.6896 23.5879 17.4553L25.5908 15.4524H15.5371C15.206 15.4522 14.9377 15.1839 14.9375 14.8528C14.9375 14.5215 15.2059 14.2534 15.5371 14.2532H25.5303L23.5879 12.3108C23.3536 12.0765 23.3536 11.6965 23.5879 11.4622Z" fill="#666666"/>
</g>
<defs>
<clipPath id="clip0_1292_3899">
<rect width="28" height="28" fill="white"/>
</clipPath>
</defs>
</svg>
