<svg width="24" height="24" viewBox="0 0 24 24" fill="none" xmlns="http://www.w3.org/2000/svg">
<g clip-path="url(#clip0_1281_13724)">
<path d="M9 7.5V18.8128C8.99993 18.9362 8.96943 19.0576 8.91121 19.1663C8.853 19.2751 8.76886 19.3678 8.66625 19.4363L7.635 20.1234C7.53497 20.1901 7.42037 20.2318 7.30087 20.2449C7.18137 20.2581 7.06046 20.2423 6.94833 20.1989C6.83621 20.1555 6.73616 20.0858 6.65661 19.9957C6.57706 19.9055 6.52035 19.7976 6.49125 19.6809L5.25 15" stroke="#A8A8A8" stroke-width="1.5" stroke-linecap="round" stroke-linejoin="round"/>
<path d="M20.25 18.7501C20.25 18.8929 20.2091 19.0328 20.1323 19.1532C20.0555 19.2736 19.946 19.3696 19.8165 19.4299C19.687 19.4902 19.543 19.5122 19.4014 19.4934C19.2598 19.4746 19.1265 19.4158 19.0172 19.3239C14.1047 15.2026 9 15.0001 9 15.0001H5.25C4.25544 15.0001 3.30161 14.605 2.59835 13.9018C1.89509 13.1985 1.5 12.2447 1.5 11.2501C1.5 10.2555 1.89509 9.30172 2.59835 8.59846C3.30161 7.8952 4.25544 7.50011 5.25 7.50011H9C9 7.50011 14.1047 7.29761 19.0172 3.1773C19.1264 3.0854 19.2596 3.02659 19.4011 3.00777C19.5426 2.98895 19.6866 3.0109 19.816 3.07106C19.9455 3.13121 20.0551 3.22706 20.132 3.34734C20.2088 3.46763 20.2498 3.60736 20.25 3.75011V18.7501Z" stroke="#A8A8A8" stroke-width="1.5" stroke-linecap="round" stroke-linejoin="round"/>
</g>
<defs>
<clipPath id="clip0_1281_13724">
<rect width="24" height="24" fill="white" transform="matrix(-1 0 0 1 24 0)"/>
</clipPath>
</defs>
</svg>
