<svg width="24" height="24" viewBox="0 0 24 24" fill="none" xmlns="http://www.w3.org/2000/svg">
<path d="M14.3631 8.50701V4.50255C14.3629 3.19932 13.3058 2.14289 12.0026 2.14289C10.6994 2.14306 9.64307 3.19942 9.64291 4.50255V8.50701C9.6427 8.86187 9.35496 9.14987 9.00005 9.14987C8.64514 9.14987 8.35741 8.86187 8.3572 8.50701V4.50255C8.35736 2.48934 9.98936 0.857344 12.0026 0.857178C14.0159 0.857178 15.6486 2.48924 15.6488 4.50255V8.50701C15.6486 8.86179 15.3607 9.14975 15.0059 9.14987C14.651 9.14987 14.3633 8.86187 14.3631 8.50701Z" fill="#A8A8A8"/>
<path d="M18.0001 21.0716V22.3573H6.00005V21.0716H18.0001ZM18.4286 20.643V6.92875C18.4286 6.69205 18.2367 6.50017 18.0001 6.50017H6.00005C5.76336 6.50017 5.57148 6.69205 5.57148 6.92875V20.643C5.57148 20.8797 5.76336 21.0716 6.00005 21.0716V22.3573L5.82511 22.3481C5.01806 22.2663 4.37679 21.625 4.29497 20.818L4.28577 20.643V6.92875C4.28577 5.98197 5.05328 5.21446 6.00005 5.21446H18.0001C18.9468 5.21446 19.7143 5.98197 19.7143 6.92875V20.643L19.7051 20.818C19.6233 21.625 18.982 22.2663 18.175 22.3481L18.0001 22.3573V21.0716C18.2367 21.0716 18.4286 20.8797 18.4286 20.643Z" fill="#A8A8A8"/>
</svg>
